<svg xmlns="http://www.w3.org/2000/svg" width="2600" height="1650" viewBox="0 0 2600 1650">
  <defs>
    <linearGradient id="pageBg" x1="0" x2="1" y1="0" y2="1">
      <stop offset="0" stop-color="#ffffff"/>
      <stop offset="1" stop-color="#f7f9fc"/>
    </linearGradient>
    <filter id="shadow" x="-20%" y="-20%" width="140%" height="140%">
      <feDropShadow dx="0" dy="4" stdDeviation="6" flood-color="#24364c" flood-opacity="0.10"/>
    </filter>
    <marker id="arrow" markerWidth="12" markerHeight="12" refX="10" refY="6" orient="auto"><path d="M0,0 L12,6 L0,12 Z" fill="#34465d"/></marker>
    <marker id="blueArrow" markerWidth="12" markerHeight="12" refX="10" refY="6" orient="auto"><path d="M0,0 L12,6 L0,12 Z" fill="#3779b7"/></marker>
    <marker id="greenArrow" markerWidth="12" markerHeight="12" refX="10" refY="6" orient="auto"><path d="M0,0 L12,6 L0,12 Z" fill="#33866d"/></marker>
    <marker id="purpleArrow" markerWidth="12" markerHeight="12" refX="10" refY="6" orient="auto"><path d="M0,0 L12,6 L0,12 Z" fill="#7556a8"/></marker>
    <marker id="orangeArrow" markerWidth="12" markerHeight="12" refX="10" refY="6" orient="auto"><path d="M0,0 L12,6 L0,12 Z" fill="#c47b31"/></marker>
    <style>
      text { font-family:"Microsoft YaHei","Noto Sans CJK SC",Arial,sans-serif; fill:#203047; }
      .title { font-size:40px; font-weight:700; letter-spacing:1px; }
      .subtitle { font-size:17px; fill:#64748b; }
      .panel { font-size:25px; font-weight:700; }
      .section { font-size:20px; font-weight:700; }
      .head { font-size:19px; font-weight:700; }
      .label { font-size:16px; font-weight:600; }
      .small { font-size:14px; fill:#536277; }
      .tiny { font-size:12px; fill:#6b7a8e; }
      .box { stroke-width:2; }
      .mainFlow { fill:none; stroke:#34465d; stroke-width:3.4; marker-end:url(#arrow); }
      .blueFlow { fill:none; stroke:#3779b7; stroke-width:3; marker-end:url(#blueArrow); }
      .greenFlow { fill:none; stroke:#33866d; stroke-width:3; marker-end:url(#greenArrow); }
      .purpleFlow { fill:none; stroke:#7556a8; stroke-width:3; marker-end:url(#purpleArrow); }
      .orangeFlow { fill:none; stroke:#c47b31; stroke-width:3; marker-end:url(#orangeArrow); }
      .dash { stroke-dasharray:8 7; }
      .bus { fill:none; stroke-width:2.4; }
    </style>
  </defs>

  <rect width="2600" height="1650" fill="url(#pageBg)"/>
  <text x="1300" y="62" text-anchor="middle" class="title">REDiT 多模态时序扩散重建网络</text>
  <text x="1300" y="92" text-anchor="middle" class="subtitle">详细版：S2 主重建流、SAR 条件流、时间状态流与可靠性门控流</text>

  <!-- (a) Full architecture -->
  <rect x="40" y="120" width="2520" height="830" rx="24" fill="#ffffff" stroke="#ccd6e2" stroke-width="2"/>
  <text x="70" y="163" class="panel">(a) 完整架构与数据流</text>

  <!-- Column headings -->
  <text x="180" y="215" text-anchor="middle" class="section">输入</text>
  <text x="520" y="215" text-anchor="middle" class="section">条件构建</text>
  <text x="810" y="215" text-anchor="middle" class="section">特征编码</text>
  <text x="1490" y="215" text-anchor="middle" class="section">条件时空 VMamba 主干</text>
  <text x="2170" y="215" text-anchor="middle" class="section">解码与输出</text>

  <!-- Lane backgrounds -->
  <rect x="65" y="238" width="930" height="125" rx="15" fill="#f5f9ff" stroke="#d9e5f2" stroke-width="1.5"/>
  <rect x="65" y="382" width="930" height="125" rx="15" fill="#f4faf7" stroke="#d7e9e1" stroke-width="1.5"/>
  <rect x="65" y="526" width="930" height="125" rx="15" fill="#f4faf7" stroke="#d7e9e1" stroke-width="1.5"/>
  <rect x="65" y="670" width="930" height="125" rx="15" fill="#faf8fd" stroke="#e4dcf0" stroke-width="1.5"/>

  <!-- S2 lane -->
  <g filter="url(#shadow)">
    <rect x="85" y="255" width="220" height="92" rx="13" fill="#e8f2ff" stroke="#6d9fd1" class="box"/>
    <rect x="101" y="272" width="58" height="58" rx="6" fill="#3779bb"/>
    <path d="M108 320 L123 298 L137 312 L151 286" stroke="#fff" stroke-width="4" fill="none"/>
    <circle cx="146" cy="281" r="6" fill="#f1cb7d"/>
    <text x="176" y="290" class="head">含云 S2 时序</text>
    <text x="176" y="317" class="small">光学主输入</text>
    <text x="176" y="338" class="tiny">可见区域与云遮挡区域</text>

    <rect x="410" y="255" width="220" height="92" rx="13" fill="#fff3e7" stroke="#dc9a5b" class="box"/>
    <text x="520" y="286" text-anchor="middle" class="head">目标质量修正</text>
    <text x="520" y="314" text-anchor="middle" class="small">识别残留云污染</text>
    <text x="520" y="337" text-anchor="middle" class="tiny">训练阶段支路</text>

    <rect x="710" y="255" width="205" height="92" rx="13" fill="#deecff" stroke="#7fa8cf" class="box"/>
    <text x="812" y="287" text-anchor="middle" class="head">S2 分块编码</text>
    <text x="812" y="315" text-anchor="middle" class="small">光学图像 → Token</text>
  </g>
  <path d="M305 301 H385 V301 H410" class="orangeFlow dash"/>
  <path d="M305 326 H680 V301 H710" class="blueFlow"/>
  <path d="M630 301 H680" class="orangeFlow dash"/>

  <!-- Aligned SAR lane -->
  <g filter="url(#shadow)">
    <rect x="85" y="399" width="220" height="92" rx="13" fill="#e7f6ee" stroke="#63a98d" class="box"/>
    <rect x="101" y="416" width="58" height="58" rx="6" fill="#33866d"/>
    <path d="M108 456 C120 426 137 426 152 456 M108 436 C121 466 138 466 152 436" stroke="#fff" stroke-width="3.5" fill="none"/>
    <text x="176" y="434" class="head">对齐 S1 SAR</text>
    <text x="176" y="461" class="small">与 S2 日期对应</text>
    <text x="176" y="482" class="tiny">地表结构与散射信息</text>

    <rect x="410" y="399" width="220" height="92" rx="13" fill="#eef9f4" stroke="#7ab29d" class="box"/>
    <text x="520" y="430" text-anchor="middle" class="head">跨模态条件</text>
    <text x="520" y="458" text-anchor="middle" class="small">保持同日期空间对应</text>

    <rect x="710" y="399" width="205" height="92" rx="13" fill="#e3f3eb" stroke="#7ab29d" class="box"/>
    <text x="812" y="431" text-anchor="middle" class="head">SAR 分块编码</text>
    <text x="812" y="459" text-anchor="middle" class="small">雷达图像 → Token</text>
  </g>
  <path d="M305 445 H410" class="greenFlow"/>
  <path d="M630 445 H710" class="greenFlow"/>

  <!-- Dense SAR lane -->
  <g filter="url(#shadow)">
    <rect x="85" y="543" width="220" height="92" rx="13" fill="#e7f6ee" stroke="#63a98d" class="box"/>
    <g transform="translate(104 562)">
      <rect x="14" y="-8" width="52" height="52" rx="5" fill="#9acbb9"/>
      <rect x="7" y="-4" width="52" height="52" rx="5" fill="#70b39a"/>
      <rect x="0" y="0" width="52" height="52" rx="5" fill="#33866d"/>
      <path d="M8 40 C18 13 33 13 45 40" stroke="#fff" stroke-width="3" fill="none"/>
    </g>
    <text x="176" y="578" class="head">稠密 S1 时序</text>
    <text x="176" y="605" class="small">全部可用 SAR 观测</text>
    <text x="176" y="626" class="tiny">补充日期间隔中的变化</text>

    <rect x="410" y="543" width="220" height="92" rx="13" fill="#eef9f4" stroke="#7ab29d" class="box"/>
    <text x="520" y="574" text-anchor="middle" class="head">日期邻近聚合</text>
    <text x="520" y="602" text-anchor="middle" class="small">为每个 S2 日期形成</text>
    <text x="520" y="624" text-anchor="middle" class="tiny">稠密 SAR 时间记忆</text>

    <rect x="710" y="543" width="205" height="92" rx="13" fill="#e3f3eb" stroke="#7ab29d" class="box"/>
    <text x="812" y="575" text-anchor="middle" class="head">时间记忆编码</text>
    <text x="812" y="603" text-anchor="middle" class="small">聚合 SAR → Token</text>
  </g>
  <path d="M305 589 H410" class="greenFlow"/>
  <path d="M630 589 H710" class="greenFlow"/>

  <!-- Condition lane -->
  <g filter="url(#shadow)">
    <rect x="85" y="687" width="220" height="92" rx="13" fill="#f3eef9" stroke="#9a7bc2" class="box"/>
    <circle cx="130" cy="733" r="28" fill="#7556a8"/>
    <path d="M130 713 V734 L146 742" stroke="#fff" stroke-width="4" fill="none" stroke-linecap="round"/>
    <text x="176" y="721" class="head">日期与扩散步</text>
    <text x="176" y="748" class="small">真实采集时间</text>
    <text x="176" y="769" class="tiny">控制时间状态与去噪阶段</text>

    <rect x="410" y="687" width="220" height="92" rx="13" fill="#fff3e7" stroke="#dc9a5b" class="box"/>
    <text x="520" y="718" text-anchor="middle" class="head">云掩膜与地物路由</text>
    <text x="520" y="746" text-anchor="middle" class="small">云可靠性 · 建筑 · 耕地</text>
    <text x="520" y="768" text-anchor="middle" class="tiny">林地 · 其他地物</text>

    <rect x="710" y="687" width="205" height="92" rx="13" fill="#eee7f8" stroke="#9a7bc2" class="box"/>
    <text x="812" y="719" text-anchor="middle" class="head">条件编码</text>
    <text x="812" y="747" text-anchor="middle" class="small">日期 · 掩膜 · 时间步</text>
  </g>
  <path d="M305 733 H410" class="purpleFlow"/>
  <path d="M630 733 H710" class="orangeFlow"/>

  <!-- Backbone body -->
  <rect x="1020" y="240" width="965" height="555" rx="22" fill="#edf4fc" stroke="#6e93bc" stroke-width="2.6"/>
  <text x="1502" y="278" text-anchor="middle" class="head">主干块重复堆叠</text>

  <!-- Main feature route: one straight line -->
  <g filter="url(#shadow)">
    <rect x="1070" y="315" width="205" height="150" rx="15" fill="#e3f3eb" stroke="#63a98d" class="box"/>
    <text x="1172" y="351" text-anchor="middle" class="head">S1–S2 融合</text>
    <text x="1172" y="383" text-anchor="middle" class="small">S2 查询光学目标</text>
    <text x="1172" y="410" text-anchor="middle" class="small">S1 提供结构键值</text>
    <text x="1172" y="441" text-anchor="middle" class="tiny">跨模态注意力</text>

    <rect x="1320" y="315" width="205" height="150" rx="15" fill="#eee7f8" stroke="#9273bd" class="box"/>
    <text x="1422" y="351" text-anchor="middle" class="head">双向时间 Mamba</text>
    <text x="1422" y="383" text-anchor="middle" class="small">正向与反向状态传播</text>
    <text x="1422" y="410" text-anchor="middle" class="small">感知真实日期间隔</text>
    <text x="1422" y="441" text-anchor="middle" class="tiny">云可靠性控制状态写入</text>

    <rect x="1570" y="315" width="205" height="150" rx="15" fill="#e5f6f7" stroke="#5ca7ad" class="box"/>
    <text x="1672" y="351" text-anchor="middle" class="head">多尺度空间 VMamba</text>
    <text x="1672" y="383" text-anchor="middle" class="small">水平与垂直选择扫描</text>
    <text x="1672" y="410" text-anchor="middle" class="small">全尺度与粗尺度融合</text>
    <text x="1672" y="441" text-anchor="middle" class="tiny">局部卷积保持纹理</text>

    <rect x="1820" y="315" width="125" height="150" rx="15" fill="#f5f6f8" stroke="#9aa8b8" class="box"/>
    <text x="1882" y="365" text-anchor="middle" class="head">条件前馈</text>
    <text x="1882" y="397" text-anchor="middle" class="small">AdaLN</text>
    <text x="1882" y="424" text-anchor="middle" class="small">MLP</text>
  </g>
  <path d="M995 390 H1070" class="mainFlow"/>
  <path d="M1275 390 H1320 M1525 390 H1570 M1775 390 H1820" class="mainFlow"/>

  <!-- Dedicated input ports: no crossings -->
  <path d="M915 445 H1000 V505 H1172 V465" class="greenFlow"/>
  <text x="1020" y="493" class="tiny">对齐 SAR</text>
  <path d="M915 589 H970 V545 H1422 V465" class="greenFlow"/>
  <text x="1015" y="534" class="tiny">稠密 SAR 记忆</text>

  <!-- Separate control buses below main route -->
  <rect x="1080" y="630" width="840" height="110" rx="15" fill="#ffffff" stroke="#b4c0cf" stroke-width="1.8"/>
  <text x="1120" y="662" class="label">条件与门控总线</text>
  <rect x="1097" y="682" width="150" height="38" rx="8" fill="#fff8df"/><text x="1172" y="707" text-anchor="middle" class="small">SAR 地物门控</text>
  <rect x="1322" y="682" width="200" height="38" rx="8" fill="#f3eef9"/><text x="1422" y="707" text-anchor="middle" class="small">日期 · 云 · 时间门控</text>
  <rect x="1587" y="682" width="170" height="38" rx="8" fill="#fff3e7"/><text x="1672" y="707" text-anchor="middle" class="small">云 · 空间门控</text>
  <rect x="1807" y="682" width="150" height="38" rx="8" fill="#eee7f8"/><text x="1882" y="707" text-anchor="middle" class="small">扩散时间步</text>
  <path d="M915 733 H1000 V685 H1080" class="purpleFlow"/>

  <!-- One-to-one vertical modulation arrows -->
  <path d="M1172 682 V465" class="orangeFlow dash"/>
  <path d="M1422 682 V465" class="purpleFlow dash"/>
  <path d="M1672 682 V465" class="orangeFlow dash"/>
  <path d="M1882 682 V465" class="purpleFlow dash"/>

  <!-- Residual route above blocks -->
  <path d="M1070 315 V294 H1945 V315" fill="none" stroke="#7b8ba0" stroke-width="2.2" stroke-dasharray="8 6" marker-end="url(#arrow)"/>
  <text x="1507" y="289" text-anchor="middle" class="tiny">块内残差主路径</text>

  <!-- Decoder and output -->
  <g filter="url(#shadow)">
    <rect x="2050" y="280" width="220" height="340" rx="18" fill="#f7f9fc" stroke="#9aa8b8" class="box"/>
    <text x="2160" y="321" text-anchor="middle" class="head">光学序列解码</text>
    <rect x="2080" y="352" width="160" height="58" rx="9" fill="#e8eef6"/>
    <text x="2160" y="388" text-anchor="middle" class="label">输出映射</text>
    <path d="M2160 410 V440" class="mainFlow"/>
    <rect x="2080" y="442" width="160" height="58" rx="9" fill="#e8eef6"/>
    <text x="2160" y="478" text-anchor="middle" class="label">序列反分块</text>
    <path d="M2160 500 V530" class="mainFlow"/>
    <rect x="2080" y="532" width="160" height="65" rx="9" fill="#ffe9e7" stroke="#d9877f" stroke-width="1.5"/>
    <text x="2160" y="560" text-anchor="middle" class="label">高频细节修复</text>
    <text x="2160" y="583" text-anchor="middle" class="tiny">云区纹理残差</text>

    <rect x="2340" y="305" width="170" height="290" rx="18" fill="#e4f7f2" stroke="#50a798" class="box"/>
    <text x="2425" y="344" text-anchor="middle" class="head">无云 S2 时序</text>
    <g transform="translate(2375 380)">
      <rect x="26" y="-14" width="102" height="92" rx="7" fill="#b6ddd1" stroke="#4f9e91" stroke-width="2"/>
      <rect x="13" y="-7" width="102" height="92" rx="7" fill="#d0ebe3" stroke="#4f9e91" stroke-width="2"/>
      <rect x="0" y="0" width="102" height="92" rx="7" fill="#6ba88a" stroke="#357a69" stroke-width="2.4"/>
      <path d="M7 73 C25 47 39 62 54 35 C67 15 81 35 96 16" fill="none" stroke="#eef4d5" stroke-width="7"/>
      <path d="M7 84 L31 59 L53 69 L73 43 L96 51" fill="none" stroke="#2d6f59" stroke-width="4"/>
    </g>
    <text x="2425" y="516" text-anchor="middle" class="small">空间连续</text>
    <text x="2425" y="541" text-anchor="middle" class="small">时间一致</text>
    <text x="2425" y="566" text-anchor="middle" class="small">多光谱输出</text>
  </g>
  <path d="M1945 390 H2050" class="mainFlow"/>
  <path d="M2270 450 H2340" class="mainFlow"/>

  <!-- Diffusion loop, isolated from network paths -->
  <rect x="1020" y="820" width="1490" height="95" rx="15" fill="#fbfcfe" stroke="#aeb9c7" stroke-width="1.8"/>
  <text x="1060" y="855" class="label">反向扩散循环</text>
  <rect x="1220" y="840" width="200" height="50" rx="9" fill="#e8f2ff"/><text x="1320" y="871" text-anchor="middle" class="small">当前受损序列</text>
  <rect x="1530" y="840" width="200" height="50" rx="9" fill="#edf4fc"/><text x="1630" y="871" text-anchor="middle" class="small">REDiT 预测</text>
  <rect x="1840" y="840" width="200" height="50" rx="9" fill="#f3eef9"/><text x="1940" y="871" text-anchor="middle" class="small">调度器更新</text>
  <rect x="2150" y="840" width="200" height="50" rx="9" fill="#e4f7f2"/><text x="2250" y="871" text-anchor="middle" class="small">逐步恢复无云序列</text>
  <path d="M1420 865 H1530 M1730 865 H1840 M2040 865 H2150" class="mainFlow"/>
  <path d="M1940 890 V906 H1320 V890" fill="none" stroke="#7556a8" stroke-width="2.2" stroke-dasharray="7 6" marker-end="url(#purpleArrow)"/>

  <!-- (b) Expanded block -->
  <rect x="40" y="985" width="1625" height="615" rx="24" fill="#ffffff" stroke="#ccd6e2" stroke-width="2"/>
  <text x="70" y="1028" class="panel">(b) 时空 VMamba 内部机制</text>

  <text x="100" y="1080" class="section">主干块</text>
  <rect x="90" y="1100" width="1525" height="190" rx="18" fill="#f8fafc" stroke="#b5c0ce" stroke-width="1.8"/>
  <rect x="120" y="1150" width="170" height="80" rx="11" fill="#e8f2ff" stroke="#7fa8cf" class="box"/><text x="205" y="1182" text-anchor="middle" class="label">S2 Token</text><text x="205" y="1208" text-anchor="middle" class="tiny">输入特征</text>
  <rect x="360" y="1130" width="235" height="120" rx="13" fill="#e3f3eb" stroke="#63a98d" class="box"/><text x="477" y="1170" text-anchor="middle" class="head">跨模态融合</text><text x="477" y="1202" text-anchor="middle" class="small">S1 条件键值</text>
  <rect x="665" y="1130" width="235" height="120" rx="13" fill="#eee7f8" stroke="#9273bd" class="box"/><text x="782" y="1170" text-anchor="middle" class="head">时间状态扫描</text><text x="782" y="1202" text-anchor="middle" class="small">双向日期传播</text>
  <rect x="970" y="1130" width="235" height="120" rx="13" fill="#e5f6f7" stroke="#5ca7ad" class="box"/><text x="1087" y="1170" text-anchor="middle" class="head">空间状态扫描</text><text x="1087" y="1202" text-anchor="middle" class="small">多尺度二维关系</text>
  <rect x="1275" y="1150" width="170" height="80" rx="11" fill="#f3f5f8" stroke="#9aa8b8" class="box"/><text x="1360" y="1182" text-anchor="middle" class="label">AdaLN · MLP</text><text x="1360" y="1208" text-anchor="middle" class="tiny">条件前馈</text>
  <rect x="1490" y="1150" width="95" height="80" rx="11" fill="#e4f7f2" stroke="#50a798" class="box"/><text x="1537" y="1197" text-anchor="middle" class="label">输出</text>
  <path d="M290 1190 H360 M595 1190 H665 M900 1190 H970 M1205 1190 H1275 M1445 1190 H1490" class="mainFlow"/>
  <path d="M205 1150 V1118 H1360 V1150" fill="none" stroke="#7b8ba0" stroke-width="2.1" stroke-dasharray="7 6" marker-end="url(#arrow)"/>

  <!-- Temporal details -->
  <rect x="90" y="1330" width="720" height="225" rx="17" fill="#faf8fd" stroke="#b5a1cf" stroke-width="1.8"/>
  <text x="450" y="1366" text-anchor="middle" class="head">时间分支：固定空间位置，沿真实日期扫描</text>
  <g transform="translate(145 1400)">
    <rect x="0" y="0" width="70" height="62" rx="8" fill="#e2ebf7" stroke="#7d98b9" stroke-width="1.8"/>
    <rect x="100" y="0" width="70" height="62" rx="8" fill="#d8e5f5" stroke="#7d98b9" stroke-width="1.8"/>
    <rect x="200" y="0" width="70" height="62" rx="8" fill="#cedff2" stroke="#7d98b9" stroke-width="1.8"/>
    <rect x="300" y="0" width="70" height="62" rx="8" fill="#c4d9ef" stroke="#7d98b9" stroke-width="1.8"/>
    <rect x="400" y="0" width="70" height="62" rx="8" fill="#bad3ec" stroke="#7d98b9" stroke-width="1.8"/>
    <path d="M10 88 H460" class="purpleFlow"/>
    <path d="M460 116 H10" class="purpleFlow"/>
  </g>
  <text x="450" y="1535" text-anchor="middle" class="tiny">云可靠性控制写入 · 日期间隔控制步长 · 稠密 SAR 调制变化响应</text>

  <!-- Spatial details -->
  <rect x="850" y="1330" width="765" height="225" rx="17" fill="#f5fbfb" stroke="#85bdc1" stroke-width="1.8"/>
  <text x="1232" y="1366" text-anchor="middle" class="head">空间分支：固定日期，在二维地表上扫描</text>
  <g transform="translate(920 1400)">
    <rect x="0" y="0" width="250" height="110" rx="10" fill="#e9f6f7" stroke="#5ca7ad" stroke-width="1.8"/>
    <g stroke="#bfdadd" stroke-width="1"><path d="M50 0 V110 M100 0 V110 M150 0 V110 M200 0 V110"/><path d="M0 27 H250 M0 55 H250 M0 82 H250"/></g>
    <path d="M12 34 H235 M235 75 H12" stroke="#318c96" stroke-width="3" fill="none" marker-end="url(#arrow)"/>
    <path d="M78 10 V99 M170 99 V10" stroke="#3779b7" stroke-width="3" fill="none" marker-end="url(#blueArrow)"/>
  </g>
  <g transform="translate(1255 1400)">
    <rect x="0" y="0" width="275" height="110" rx="10" fill="#eef9f5" stroke="#63a98d" stroke-width="1.8"/>
    <circle cx="68" cy="55" r="34" fill="#cde8de" stroke="#63a98d" stroke-width="1.8"/>
    <circle cx="68" cy="55" r="18" fill="#70b39a"/>
    <path d="M128 28 H245 M128 55 H245 M128 82 H245" stroke="#33866d" stroke-width="6" stroke-linecap="round"/>
  </g>
  <text x="1232" y="1535" text-anchor="middle" class="tiny">方向扫描建模长距离结构 · 局部卷积保留道路、边缘与纹理</text>

  <!-- (c) Train / inference -->
  <rect x="1705" y="985" width="855" height="615" rx="24" fill="#ffffff" stroke="#ccd6e2" stroke-width="2"/>
  <text x="1735" y="1028" class="panel">(c) 训练与重建</text>

  <rect x="1750" y="1080" width="765" height="195" rx="17" fill="#fff8f1" stroke="#dfa16a" stroke-width="1.8"/>
  <text x="1785" y="1118" class="head">训练阶段</text>
  <rect x="1790" y="1150" width="150" height="58" rx="9" fill="#e8f2ff"/><text x="1865" y="1186" text-anchor="middle" class="small">真实 S2</text>
  <rect x="2040" y="1150" width="150" height="58" rx="9" fill="#fff0e1"/><text x="2115" y="1186" text-anchor="middle" class="small">加噪与遮挡</text>
  <rect x="2290" y="1150" width="180" height="58" rx="9" fill="#edf4fc"/><text x="2380" y="1186" text-anchor="middle" class="small">预测与损失监督</text>
  <path d="M1940 1179 H2040 M2190 1179 H2290" class="mainFlow"/>
  <text x="2132" y="1247" text-anchor="middle" class="tiny">目标质量修正仅在训练中参与可靠监督构建</text>

  <rect x="1750" y="1310" width="765" height="195" rx="17" fill="#f2faf7" stroke="#63a98d" stroke-width="1.8"/>
  <text x="1785" y="1348" class="head">推理阶段</text>
  <rect x="1790" y="1380" width="165" height="58" rx="9" fill="#e8f2ff"/><text x="1872" y="1416" text-anchor="middle" class="small">含云 S2 + S1</text>
  <rect x="2050" y="1380" width="165" height="58" rx="9" fill="#f3eef9"/><text x="2132" y="1416" text-anchor="middle" class="small">迭代反向扩散</text>
  <rect x="2310" y="1380" width="160" height="58" rx="9" fill="#e4f7f2"/><text x="2390" y="1416" text-anchor="middle" class="small">无云 S2 时序</text>
  <path d="M1955 1409 H2050 M2215 1409 H2310" class="mainFlow"/>
  <text x="2132" y="1477" text-anchor="middle" class="tiny">保留可见区域，重点恢复云掩膜覆盖位置</text>

  <!-- Legend -->
  <rect x="1765" y="1535" width="735" height="40" rx="9" fill="#f8fafc" stroke="#d5dde7" stroke-width="1"/>
  <line x1="1790" y1="1555" x2="1840" y2="1555" stroke="#3779b7" stroke-width="4"/><text x="1852" y="1561" class="tiny">S2 主流</text>
  <line x1="1935" y1="1555" x2="1985" y2="1555" stroke="#33866d" stroke-width="4"/><text x="1997" y="1561" class="tiny">SAR 条件</text>
  <line x1="2095" y1="1555" x2="2145" y2="1555" stroke="#7556a8" stroke-width="4"/><text x="2157" y="1561" class="tiny">日期时间</text>
  <line x1="2255" y1="1555" x2="2305" y2="1555" stroke="#c47b31" stroke-width="4" stroke-dasharray="7 5"/><text x="2317" y="1561" class="tiny">可靠性与门控</text>

  <text x="1300" y="1630" text-anchor="middle" class="tiny">实线表示数据流；虚线表示训练支路、残差连接或条件调制。</text>
</svg>
